<mxfile host="app.diagrams.net" modified="2021-10-01T01:42:20.562Z" agent="5.0 (Windows NT 10.0; Win64; x64) AppleWebKit/537.36 (KHTML, like Gecko) Chrome/94.0.4606.61 Safari/537.36" etag="3cnRV1leKwLg4TZhyp1M" version="15.2.9" type="github">
  <diagram id="C5RBs43oDa-KdzZeNtuy" name="Page-1">
    <mxGraphModel dx="782" dy="706" grid="1" gridSize="10" guides="1" tooltips="1" connect="1" arrows="1" fold="1" page="1" pageScale="1" pageWidth="827" pageHeight="1169" math="0" shadow="0">
      <root>
        <mxCell id="WIyWlLk6GJQsqaUBKTNV-0" />
        <mxCell id="WIyWlLk6GJQsqaUBKTNV-1" parent="WIyWlLk6GJQsqaUBKTNV-0" />
        <mxCell id="YR_a_N9n4f3emjOhJUzM-0" value="Pessoa" style="rounded=0;whiteSpace=wrap;html=1;" vertex="1" parent="WIyWlLk6GJQsqaUBKTNV-1">
          <mxGeometry x="340" y="90" width="120" height="40" as="geometry" />
        </mxCell>
        <mxCell id="YR_a_N9n4f3emjOhJUzM-2" value="" style="triangle;whiteSpace=wrap;html=1;rotation=-90;" vertex="1" parent="WIyWlLk6GJQsqaUBKTNV-1">
          <mxGeometry x="354" y="190" width="30" height="40" as="geometry" />
        </mxCell>
        <mxCell id="YR_a_N9n4f3emjOhJUzM-4" value="" style="endArrow=none;html=1;exitX=1;exitY=0.5;exitDx=0;exitDy=0;" edge="1" parent="WIyWlLk6GJQsqaUBKTNV-1">
          <mxGeometry width="50" height="50" relative="1" as="geometry">
            <mxPoint x="369" y="195" as="sourcePoint" />
            <mxPoint x="369" y="130" as="targetPoint" />
          </mxGeometry>
        </mxCell>
        <mxCell id="YR_a_N9n4f3emjOhJUzM-5" value="" style="endArrow=none;html=1;" edge="1" parent="WIyWlLk6GJQsqaUBKTNV-1">
          <mxGeometry width="50" height="50" relative="1" as="geometry">
            <mxPoint x="445" y="210" as="sourcePoint" />
            <mxPoint x="445" y="130" as="targetPoint" />
          </mxGeometry>
        </mxCell>
        <mxCell id="YR_a_N9n4f3emjOhJUzM-6" value="" style="endArrow=none;html=1;" edge="1" parent="WIyWlLk6GJQsqaUBKTNV-1">
          <mxGeometry width="50" height="50" relative="1" as="geometry">
            <mxPoint x="446" y="140" as="sourcePoint" />
            <mxPoint x="510" y="140" as="targetPoint" />
          </mxGeometry>
        </mxCell>
        <mxCell id="YR_a_N9n4f3emjOhJUzM-7" value="" style="endArrow=none;html=1;" edge="1" parent="WIyWlLk6GJQsqaUBKTNV-1">
          <mxGeometry width="50" height="50" relative="1" as="geometry">
            <mxPoint x="445" y="155" as="sourcePoint" />
            <mxPoint x="510" y="155" as="targetPoint" />
          </mxGeometry>
        </mxCell>
        <mxCell id="YR_a_N9n4f3emjOhJUzM-8" value="" style="endArrow=none;html=1;" edge="1" parent="WIyWlLk6GJQsqaUBKTNV-1">
          <mxGeometry width="50" height="50" relative="1" as="geometry">
            <mxPoint x="446" y="171" as="sourcePoint" />
            <mxPoint x="510" y="171" as="targetPoint" />
          </mxGeometry>
        </mxCell>
        <mxCell id="YR_a_N9n4f3emjOhJUzM-9" value="" style="endArrow=none;html=1;" edge="1" parent="WIyWlLk6GJQsqaUBKTNV-1">
          <mxGeometry width="50" height="50" relative="1" as="geometry">
            <mxPoint x="446" y="189" as="sourcePoint" />
            <mxPoint x="510" y="189" as="targetPoint" />
          </mxGeometry>
        </mxCell>
        <mxCell id="YR_a_N9n4f3emjOhJUzM-10" value="" style="endArrow=none;html=1;" edge="1" parent="WIyWlLk6GJQsqaUBKTNV-1">
          <mxGeometry width="50" height="50" relative="1" as="geometry">
            <mxPoint x="446" y="210" as="sourcePoint" />
            <mxPoint x="510" y="210" as="targetPoint" />
          </mxGeometry>
        </mxCell>
        <mxCell id="YR_a_N9n4f3emjOhJUzM-11" value="" style="ellipse;whiteSpace=wrap;html=1;aspect=fixed;strokeColor=#001DBC;fillColor=#000000;fontColor=#ffffff;" vertex="1" parent="WIyWlLk6GJQsqaUBKTNV-1">
          <mxGeometry x="516" y="134" width="10" height="10" as="geometry" />
        </mxCell>
        <mxCell id="YR_a_N9n4f3emjOhJUzM-12" value="" style="ellipse;whiteSpace=wrap;html=1;aspect=fixed;" vertex="1" parent="WIyWlLk6GJQsqaUBKTNV-1">
          <mxGeometry x="516" y="150" width="10" height="10" as="geometry" />
        </mxCell>
        <mxCell id="YR_a_N9n4f3emjOhJUzM-13" value="" style="ellipse;whiteSpace=wrap;html=1;aspect=fixed;" vertex="1" parent="WIyWlLk6GJQsqaUBKTNV-1">
          <mxGeometry x="516" y="166" width="10" height="10" as="geometry" />
        </mxCell>
        <mxCell id="YR_a_N9n4f3emjOhJUzM-14" value="" style="ellipse;whiteSpace=wrap;html=1;aspect=fixed;" vertex="1" parent="WIyWlLk6GJQsqaUBKTNV-1">
          <mxGeometry x="516" y="184" width="10" height="10" as="geometry" />
        </mxCell>
        <mxCell id="YR_a_N9n4f3emjOhJUzM-15" value="" style="ellipse;whiteSpace=wrap;html=1;aspect=fixed;" vertex="1" parent="WIyWlLk6GJQsqaUBKTNV-1">
          <mxGeometry x="515" y="205" width="10" height="10" as="geometry" />
        </mxCell>
        <mxCell id="YR_a_N9n4f3emjOhJUzM-18" value="id" style="text;html=1;strokeColor=none;fillColor=none;align=center;verticalAlign=middle;whiteSpace=wrap;rounded=0;fontStyle=1" vertex="1" parent="WIyWlLk6GJQsqaUBKTNV-1">
          <mxGeometry x="515" y="128" width="40" height="20" as="geometry" />
        </mxCell>
        <mxCell id="YR_a_N9n4f3emjOhJUzM-19" value="Nome" style="text;html=1;strokeColor=none;fillColor=none;align=center;verticalAlign=middle;whiteSpace=wrap;rounded=0;" vertex="1" parent="WIyWlLk6GJQsqaUBKTNV-1">
          <mxGeometry x="528" y="145" width="40" height="20" as="geometry" />
        </mxCell>
        <mxCell id="YR_a_N9n4f3emjOhJUzM-20" value="Telefone" style="text;html=1;strokeColor=none;fillColor=none;align=center;verticalAlign=middle;whiteSpace=wrap;rounded=0;" vertex="1" parent="WIyWlLk6GJQsqaUBKTNV-1">
          <mxGeometry x="533" y="162" width="40" height="20" as="geometry" />
        </mxCell>
        <mxCell id="YR_a_N9n4f3emjOhJUzM-21" value="Email" style="text;html=1;strokeColor=none;fillColor=none;align=center;verticalAlign=middle;whiteSpace=wrap;rounded=0;" vertex="1" parent="WIyWlLk6GJQsqaUBKTNV-1">
          <mxGeometry x="527" y="179" width="40" height="20" as="geometry" />
        </mxCell>
        <mxCell id="YR_a_N9n4f3emjOhJUzM-23" value="EndereÃ§o" style="text;html=1;strokeColor=none;fillColor=none;align=center;verticalAlign=middle;whiteSpace=wrap;rounded=0;" vertex="1" parent="WIyWlLk6GJQsqaUBKTNV-1">
          <mxGeometry x="536" y="199" width="40" height="20" as="geometry" />
        </mxCell>
        <mxCell id="YR_a_N9n4f3emjOhJUzM-61" value="" style="endArrow=none;html=1;" edge="1" parent="WIyWlLk6GJQsqaUBKTNV-1">
          <mxGeometry width="50" height="50" relative="1" as="geometry">
            <mxPoint x="596" y="210" as="sourcePoint" />
            <mxPoint x="646" y="160" as="targetPoint" />
          </mxGeometry>
        </mxCell>
        <mxCell id="YR_a_N9n4f3emjOhJUzM-62" value="" style="endArrow=none;html=1;" edge="1" parent="WIyWlLk6GJQsqaUBKTNV-1">
          <mxGeometry width="50" height="50" relative="1" as="geometry">
            <mxPoint x="596" y="210" as="sourcePoint" />
            <mxPoint x="656" y="180" as="targetPoint" />
          </mxGeometry>
        </mxCell>
        <mxCell id="YR_a_N9n4f3emjOhJUzM-64" value="" style="endArrow=none;html=1;" edge="1" parent="WIyWlLk6GJQsqaUBKTNV-1">
          <mxGeometry width="50" height="50" relative="1" as="geometry">
            <mxPoint x="596" y="210" as="sourcePoint" />
            <mxPoint x="666" y="200" as="targetPoint" />
          </mxGeometry>
        </mxCell>
        <mxCell id="YR_a_N9n4f3emjOhJUzM-65" value="" style="endArrow=none;html=1;" edge="1" parent="WIyWlLk6GJQsqaUBKTNV-1">
          <mxGeometry width="50" height="50" relative="1" as="geometry">
            <mxPoint x="596" y="210" as="sourcePoint" />
            <mxPoint x="666" y="220" as="targetPoint" />
          </mxGeometry>
        </mxCell>
        <mxCell id="YR_a_N9n4f3emjOhJUzM-66" value="" style="endArrow=none;html=1;" edge="1" parent="WIyWlLk6GJQsqaUBKTNV-1">
          <mxGeometry width="50" height="50" relative="1" as="geometry">
            <mxPoint x="666" y="240" as="sourcePoint" />
            <mxPoint x="596" y="210" as="targetPoint" />
          </mxGeometry>
        </mxCell>
        <mxCell id="YR_a_N9n4f3emjOhJUzM-67" value="" style="endArrow=none;html=1;" edge="1" parent="WIyWlLk6GJQsqaUBKTNV-1">
          <mxGeometry width="50" height="50" relative="1" as="geometry">
            <mxPoint x="656" y="265" as="sourcePoint" />
            <mxPoint x="596" y="210" as="targetPoint" />
          </mxGeometry>
        </mxCell>
        <mxCell id="YR_a_N9n4f3emjOhJUzM-68" value="" style="endArrow=none;html=1;" edge="1" parent="WIyWlLk6GJQsqaUBKTNV-1">
          <mxGeometry width="50" height="50" relative="1" as="geometry">
            <mxPoint x="646" y="280" as="sourcePoint" />
            <mxPoint x="596" y="210" as="targetPoint" />
          </mxGeometry>
        </mxCell>
        <mxCell id="YR_a_N9n4f3emjOhJUzM-69" value="" style="ellipse;whiteSpace=wrap;html=1;aspect=fixed;" vertex="1" parent="WIyWlLk6GJQsqaUBKTNV-1">
          <mxGeometry x="641" y="156" width="10" height="10" as="geometry" />
        </mxCell>
        <mxCell id="YR_a_N9n4f3emjOhJUzM-70" value="" style="ellipse;whiteSpace=wrap;html=1;aspect=fixed;" vertex="1" parent="WIyWlLk6GJQsqaUBKTNV-1">
          <mxGeometry x="650" y="174" width="10" height="10" as="geometry" />
        </mxCell>
        <mxCell id="YR_a_N9n4f3emjOhJUzM-71" value="" style="ellipse;whiteSpace=wrap;html=1;aspect=fixed;" vertex="1" parent="WIyWlLk6GJQsqaUBKTNV-1">
          <mxGeometry x="661" y="194" width="10" height="10" as="geometry" />
        </mxCell>
        <mxCell id="YR_a_N9n4f3emjOhJUzM-72" value="" style="ellipse;whiteSpace=wrap;html=1;aspect=fixed;" vertex="1" parent="WIyWlLk6GJQsqaUBKTNV-1">
          <mxGeometry x="664" y="213" width="10" height="10" as="geometry" />
        </mxCell>
        <mxCell id="YR_a_N9n4f3emjOhJUzM-73" value="" style="ellipse;whiteSpace=wrap;html=1;aspect=fixed;" vertex="1" parent="WIyWlLk6GJQsqaUBKTNV-1">
          <mxGeometry x="666" y="235" width="10" height="10" as="geometry" />
        </mxCell>
        <mxCell id="YR_a_N9n4f3emjOhJUzM-74" value="" style="ellipse;whiteSpace=wrap;html=1;aspect=fixed;" vertex="1" parent="WIyWlLk6GJQsqaUBKTNV-1">
          <mxGeometry x="657" y="259" width="10" height="10" as="geometry" />
        </mxCell>
        <mxCell id="YR_a_N9n4f3emjOhJUzM-75" value="" style="ellipse;whiteSpace=wrap;html=1;aspect=fixed;" vertex="1" parent="WIyWlLk6GJQsqaUBKTNV-1">
          <mxGeometry x="646" y="276" width="10" height="10" as="geometry" />
        </mxCell>
        <mxCell id="YR_a_N9n4f3emjOhJUzM-76" value="Rua" style="text;html=1;strokeColor=none;fillColor=none;align=center;verticalAlign=middle;whiteSpace=wrap;rounded=0;" vertex="1" parent="WIyWlLk6GJQsqaUBKTNV-1">
          <mxGeometry x="651" y="146" width="40" height="20" as="geometry" />
        </mxCell>
        <mxCell id="YR_a_N9n4f3emjOhJUzM-77" value="NÃºmero" style="text;html=1;strokeColor=none;fillColor=none;align=center;verticalAlign=middle;whiteSpace=wrap;rounded=0;" vertex="1" parent="WIyWlLk6GJQsqaUBKTNV-1">
          <mxGeometry x="667" y="165" width="40" height="20" as="geometry" />
        </mxCell>
        <mxCell id="YR_a_N9n4f3emjOhJUzM-78" value="Complemento" style="text;html=1;strokeColor=none;fillColor=none;align=center;verticalAlign=middle;whiteSpace=wrap;rounded=0;" vertex="1" parent="WIyWlLk6GJQsqaUBKTNV-1">
          <mxGeometry x="693" y="187" width="40" height="20" as="geometry" />
        </mxCell>
        <mxCell id="YR_a_N9n4f3emjOhJUzM-79" value="Bairro" style="text;html=1;strokeColor=none;fillColor=none;align=center;verticalAlign=middle;whiteSpace=wrap;rounded=0;" vertex="1" parent="WIyWlLk6GJQsqaUBKTNV-1">
          <mxGeometry x="675" y="208" width="40" height="20" as="geometry" />
        </mxCell>
        <mxCell id="YR_a_N9n4f3emjOhJUzM-80" value="Cidade" style="text;html=1;strokeColor=none;fillColor=none;align=center;verticalAlign=middle;whiteSpace=wrap;rounded=0;" vertex="1" parent="WIyWlLk6GJQsqaUBKTNV-1">
          <mxGeometry x="678" y="230" width="40" height="20" as="geometry" />
        </mxCell>
        <mxCell id="YR_a_N9n4f3emjOhJUzM-81" value="Estado" style="text;html=1;strokeColor=none;fillColor=none;align=center;verticalAlign=middle;whiteSpace=wrap;rounded=0;" vertex="1" parent="WIyWlLk6GJQsqaUBKTNV-1">
          <mxGeometry x="671" y="254" width="40" height="20" as="geometry" />
        </mxCell>
        <mxCell id="YR_a_N9n4f3emjOhJUzM-82" value="Cep" style="text;html=1;strokeColor=none;fillColor=none;align=center;verticalAlign=middle;whiteSpace=wrap;rounded=0;" vertex="1" parent="WIyWlLk6GJQsqaUBKTNV-1">
          <mxGeometry x="651" y="272" width="40" height="20" as="geometry" />
        </mxCell>
        <mxCell id="YR_a_N9n4f3emjOhJUzM-85" value="Pessoa FÃ­sica" style="rounded=0;whiteSpace=wrap;html=1;align=center;" vertex="1" parent="WIyWlLk6GJQsqaUBKTNV-1">
          <mxGeometry x="240" y="250" width="110" height="40" as="geometry" />
        </mxCell>
        <mxCell id="YR_a_N9n4f3emjOhJUzM-86" value="Pessoa JÃºridica" style="rounded=0;whiteSpace=wrap;html=1;align=center;" vertex="1" parent="WIyWlLk6GJQsqaUBKTNV-1">
          <mxGeometry x="384" y="250" width="116" height="40" as="geometry" />
        </mxCell>
        <mxCell id="YR_a_N9n4f3emjOhJUzM-88" value="" style="endArrow=none;html=1;fontColor=none;" edge="1" parent="WIyWlLk6GJQsqaUBKTNV-1">
          <mxGeometry width="50" height="50" relative="1" as="geometry">
            <mxPoint x="340" y="250" as="sourcePoint" />
            <mxPoint x="360" y="225" as="targetPoint" />
          </mxGeometry>
        </mxCell>
        <mxCell id="YR_a_N9n4f3emjOhJUzM-89" value="" style="endArrow=none;html=1;fontColor=none;" edge="1" parent="WIyWlLk6GJQsqaUBKTNV-1">
          <mxGeometry width="50" height="50" relative="1" as="geometry">
            <mxPoint x="396" y="250" as="sourcePoint" />
            <mxPoint x="376" y="225" as="targetPoint" />
          </mxGeometry>
        </mxCell>
        <mxCell id="YR_a_N9n4f3emjOhJUzM-90" value="" style="endArrow=none;html=1;fontColor=none;" edge="1" parent="WIyWlLk6GJQsqaUBKTNV-1">
          <mxGeometry width="50" height="50" relative="1" as="geometry">
            <mxPoint x="500" y="259" as="sourcePoint" />
            <mxPoint x="540" y="259" as="targetPoint" />
          </mxGeometry>
        </mxCell>
        <mxCell id="YR_a_N9n4f3emjOhJUzM-91" value="" style="endArrow=none;html=1;fontColor=none;" edge="1" parent="WIyWlLk6GJQsqaUBKTNV-1">
          <mxGeometry width="50" height="50" relative="1" as="geometry">
            <mxPoint x="500" y="274" as="sourcePoint" />
            <mxPoint x="540" y="274" as="targetPoint" />
          </mxGeometry>
        </mxCell>
        <mxCell id="YR_a_N9n4f3emjOhJUzM-93" value="" style="ellipse;whiteSpace=wrap;html=1;aspect=fixed;" vertex="1" parent="WIyWlLk6GJQsqaUBKTNV-1">
          <mxGeometry x="541" y="270" width="10" height="10" as="geometry" />
        </mxCell>
        <mxCell id="YR_a_N9n4f3emjOhJUzM-94" value="" style="ellipse;whiteSpace=wrap;html=1;aspect=fixed;fillColor=#000000;" vertex="1" parent="WIyWlLk6GJQsqaUBKTNV-1">
          <mxGeometry x="541" y="254" width="10" height="10" as="geometry" />
        </mxCell>
        <mxCell id="YR_a_N9n4f3emjOhJUzM-96" value="&lt;b&gt;idp&lt;/b&gt;j" style="text;html=1;strokeColor=none;fillColor=none;align=center;verticalAlign=middle;whiteSpace=wrap;rounded=0;fontColor=none;" vertex="1" parent="WIyWlLk6GJQsqaUBKTNV-1">
          <mxGeometry x="545" y="249" width="40" height="20" as="geometry" />
        </mxCell>
        <mxCell id="YR_a_N9n4f3emjOhJUzM-97" value="CNPJ" style="text;html=1;strokeColor=none;fillColor=none;align=center;verticalAlign=middle;whiteSpace=wrap;rounded=0;fontColor=none;" vertex="1" parent="WIyWlLk6GJQsqaUBKTNV-1">
          <mxGeometry x="552" y="265" width="40" height="20" as="geometry" />
        </mxCell>
        <mxCell id="YR_a_N9n4f3emjOhJUzM-98" value="idpf" style="text;html=1;strokeColor=none;fillColor=none;align=center;verticalAlign=middle;whiteSpace=wrap;rounded=0;fontColor=none;fontStyle=1" vertex="1" parent="WIyWlLk6GJQsqaUBKTNV-1">
          <mxGeometry x="152" y="248" width="40" height="20" as="geometry" />
        </mxCell>
        <mxCell id="YR_a_N9n4f3emjOhJUzM-99" value="CPF" style="text;html=1;strokeColor=none;fillColor=none;align=center;verticalAlign=middle;whiteSpace=wrap;rounded=0;fontColor=none;" vertex="1" parent="WIyWlLk6GJQsqaUBKTNV-1">
          <mxGeometry x="152" y="264" width="40" height="20" as="geometry" />
        </mxCell>
        <mxCell id="YR_a_N9n4f3emjOhJUzM-101" value="" style="endArrow=none;html=1;fontColor=none;" edge="1" parent="WIyWlLk6GJQsqaUBKTNV-1">
          <mxGeometry width="50" height="50" relative="1" as="geometry">
            <mxPoint x="200" y="259" as="sourcePoint" />
            <mxPoint x="240" y="259" as="targetPoint" />
          </mxGeometry>
        </mxCell>
        <mxCell id="YR_a_N9n4f3emjOhJUzM-102" value="" style="endArrow=none;html=1;fontColor=none;" edge="1" parent="WIyWlLk6GJQsqaUBKTNV-1">
          <mxGeometry width="50" height="50" relative="1" as="geometry">
            <mxPoint x="200" y="274" as="sourcePoint" />
            <mxPoint x="240" y="274" as="targetPoint" />
          </mxGeometry>
        </mxCell>
        <mxCell id="YR_a_N9n4f3emjOhJUzM-103" value="" style="ellipse;whiteSpace=wrap;html=1;aspect=fixed;fontColor=#000000;fillColor=#000000;" vertex="1" parent="WIyWlLk6GJQsqaUBKTNV-1">
          <mxGeometry x="189" y="254" width="10" height="10" as="geometry" />
        </mxCell>
        <mxCell id="YR_a_N9n4f3emjOhJUzM-104" value="" style="ellipse;whiteSpace=wrap;html=1;aspect=fixed;" vertex="1" parent="WIyWlLk6GJQsqaUBKTNV-1">
          <mxGeometry x="189" y="269" width="10" height="10" as="geometry" />
        </mxCell>
      </root>
    </mxGraphModel>
  </diagram>
</mxfile>
